PathFileType	4	(X/Y/Z)	E:/Marcel_BSc/Marcel/30_01_2025/static_00_hjc.trc	
DataRate	CameraRate	NumFrames	NumMarkers	Units	OrigDataRate	OrigDataStartFrame	OrigNumFrames	
200.00	200.00	5	77	mm	200.00	80	158	
Frame#	Time	FHD			LBHD			RBHD			RBAR			LBAR			RASI			RSACR			LSACR			LASI			USACR			C7			CLAV			T10			RSHO			LSHO			LTHI1			LTHI3			LTHI2			LLFC			LMFC			LTIB1			LTIB2			LTIB3			LMMAL			LLMAL			LHEE			LMT1			LMT5			LMT3			RTHI1			RTHI2			RTHI3			RLFC			RMFC			RTIB1			RTIB3			RTIB2			RLMAL			RMMAL			RHEE			RMT5			RMT1			RMT3			LMEP			LLEP			LDUPA			LMUPA			LUUPA			LUL			LRAD			LRFIN			RUL			RRAD			RUFIN			RMEP			RLEP			RMUPA			RDUPA			RUUPA			*59			*60			*61			*62			*63			*64			*65			*66			*67			*68			*69			*70			LAJC			RAJC			LKJC			RKJC			LHJC			RHJC			
		X1	Y1	Z1	X2	Y2	Z2	X3	Y3	Z3	X4	Y4	Z4	X5	Y5	Z5	X6	Y6	Z6	X7	Y7	Z7	X8	Y8	Z8	X9	Y9	Z9	X10	Y10	Z10	X11	Y11	Z11	X12	Y12	Z12	X13	Y13	Z13	X14	Y14	Z14	X15	Y15	Z15	X16	Y16	Z16	X17	Y17	Z17	X18	Y18	Z18	X19	Y19	Z19	X20	Y20	Z20	X21	Y21	Z21	X22	Y22	Z22	X23	Y23	Z23	X24	Y24	Z24	X25	Y25	Z25	X26	Y26	Z26	X27	Y27	Z27	X28	Y28	Z28	X29	Y29	Z29	X30	Y30	Z30	X31	Y31	Z31	X32	Y32	Z32	X33	Y33	Z33	X34	Y34	Z34	X35	Y35	Z35	X36	Y36	Z36	X37	Y37	Z37	X38	Y38	Z38	X39	Y39	Z39	X40	Y40	Z40	X41	Y41	Z41	X42	Y42	Z42	X43	Y43	Z43	X44	Y44	Z44	X45	Y45	Z45	X46	Y46	Z46	X47	Y47	Z47	X48	Y48	Z48	X49	Y49	Z49	X50	Y50	Z50	X51	Y51	Z51	X52	Y52	Z52	X53	Y53	Z53	X54	Y54	Z54	X55	Y55	Z55	X56	Y56	Z56	X57	Y57	Z57	X58	Y58	Z58	X59	Y59	Z59	X60	Y60	Z60	X61	Y61	Z61	X62	Y62	Z62	X63	Y63	Z63	X64	Y64	Z64	X65	Y65	Z65	X66	Y66	Z66	X67	Y67	Z67	X68	Y68	Z68	X69	Y69	Z69	X70	Y70	Z70	X71	Y71	Z71	X72	Y72	Z72	X73	Y73	Z73	X74	Y74	Z74	X75	Y75	Z75	X76	Y76	Z76	X77	Y77	Z77	

80	0.395	102.61073	580.56482	1817.74829	135.02361	522.18762	1803.20276	131.15150	651.40814	1801.43494	1237.75403	1766.98376	37.49633	1248.08948	-457.81525	32.38746	101.02773	723.88458	1048.21790	309.89294	621.38678	1098.14172	305.74567	557.48712	1095.23254	95.40358	458.70483	1038.65027	301.54092	589.33948	1112.00488	278.80362	583.43359	1567.04260	116.44196	584.77240	1531.45642	281.70514	577.48596	1257.38525	239.84039	734.18103	1605.14148	223.48749	417.21915	1595.49109	228.55844	410.22238	706.98236	258.09488	428.87961	651.25726	211.10974	408.13464	643.78528	221.57959	415.31656	524.75848	174.69231	517.22308	506.39423	222.38710	400.15756	276.37875	269.57761	381.09116	274.89380	242.91957	391.94406	214.24405	268.07190	468.13812	92.39558	287.09387	380.60968	83.68176	343.99683	422.35388	38.98277	115.27023	434.43060	41.43851	145.16209	352.04297	26.12436	122.68472	388.93973	36.07970	207.65254	793.13623	674.73657	254.93803	773.84003	671.02319	226.28690	781.77527	613.13977	203.21313	778.30139	529.37329	179.52052	681.96136	508.71078	259.93680	811.46509	277.72592	291.50864	813.94000	219.53912	240.73996	809.87421	214.45505	292.80994	813.63849	75.45952	245.16440	736.35272	71.10483	339.76004	765.16571	30.49404	173.11409	862.65063	26.14973	109.43996	788.40765	42.54746	134.09225	828.96228	40.16740	160.83664	114.50527	1469.93127	233.72400	116.03493	1509.22229	259.67230	217.25742	1523.62683	226.92380	219.20288	1561.36682	235.77589	280.98682	1565.33533	170.57031	-167.40259	1563.21057	141.24832	-136.42088	1628.10400	167.43530	-235.98752	1657.23547	216.23804	1341.72778	1591.11169	195.34648	1308.36243	1658.11133	226.25365	1394.85986	1680.79614	178.34326	1045.17981	1484.28125	247.73550	1057.61279	1539.33533	246.57291	910.30933	1577.26294	254.45667	970.59106	1564.47241	281.35880	898.85193	1542.20728	2017.60303	-1583.86316	-1457.75732	125.15984	536.87482	1729.89709	926.01862	518.48383	571.19574	74.42554	553.20410	1742.22559	1239.41174	-61.81379	57.05208	151.42842	622.80267	1740.95630	-200.94955	-469.54022	23.78139				40.68986	649.60242	1771.72107										277.58289	424.37390	88.03867	268.98717	774.99561	73.28217	198.13595	466.26982	515.57635	191.36683	730.13138	519.04204	200.57462	508.09598	1066.94141	205.46033	672.63568	1073.17981 
81	0.400	102.55652	580.61591	1817.74207	134.97423	522.22107	1803.19800	131.11670	651.43097	1801.42493	1237.75977	1766.97864	37.49548	1248.03674	-457.80051	32.27666	101.04145	723.82159	1048.24109	309.90051	621.40753	1098.16565	305.79288	557.49634	1095.22803	95.43162	458.70218	1038.64624	301.58200	589.33783	1112.01233	278.79330	583.43732	1567.05383	116.44738	584.78613	1531.45740	281.74872	577.47882	1257.40479	239.84650	734.18494	1605.14575	223.50578	417.23520	1595.50806	228.59181	410.22064	706.98975	258.11636	428.88037	651.25952	211.13759	408.13589	643.78717	221.60878	415.30737	524.75958	174.72423	517.21545	506.37885	222.42348	400.16833	276.36951	269.58438	381.07800	274.89883	242.92532	391.93634	214.23381	268.11792	468.11795	92.38580	287.09738	380.60583	83.67720	343.97241	422.33618	39.02315	115.27599	434.42627	41.43476	145.16039	352.03842	26.12693	122.68949	388.93945	36.08448	207.82642	793.14709	674.69098	254.96027	773.82336	671.01514	226.31052	781.78784	613.14130	203.23062	778.31696	529.35712	179.51741	681.97369	508.71222	259.93552	811.45447	277.73221	291.57651	813.93445	219.52853	240.76248	809.86823	214.44183	292.82452	813.62036	75.45568	245.15341	736.34839	71.10715	339.89346	765.07098	30.50946	173.11157	862.65552	26.13530	109.43409	788.40271	42.55156	134.10611	828.95886	40.16324	160.86914	114.51237	1469.92932	233.73807	116.05584	1509.21570	259.69687	217.26097	1523.63477	226.94154	219.21066	1561.36536	235.79182	281.00589	1565.33105	170.60147	-167.39478	1563.25488	141.25388	-136.39729	1628.12781	167.43939	-235.94090	1657.27820	216.24535	1341.74878	1591.09558	195.33037	1308.38037	1658.08655	226.21707	1394.86560	1680.77307	178.29958	1045.21484	1484.27319	247.75983	1057.62097	1539.32849	246.58153	910.31635	1577.26929	254.47203	970.59198	1564.48291	281.36505	898.85217	1542.20630				125.13927	536.90149	1729.93237	926.10272	518.45325	571.22656	74.34385	553.23407	1742.19238				151.38638	622.74927	1740.96594	-201.29370	-469.78253	23.72577	117.92614	525.68011	1750.90063	40.67970	649.63043	1771.71265	1235.34595	-221.05424	42.28062							277.60765	424.36189	88.03150	268.98897	774.98438	73.28142	198.16650	466.26141	515.56921	191.37402	730.14532	519.03467	200.61225	508.09926	1066.93713	205.47098	672.61456	1073.20337 
82	0.405	102.51493	580.65057	1817.70984	134.94366	522.25110	1803.19946	131.09138	651.46021	1801.41138	1237.76025	1766.98364	37.50119	1248.00024	-457.96841	32.42463	101.07475	723.85999	1048.26172	309.95273	621.40997	1098.15576	305.82684	557.50134	1095.24805	95.47816	458.70715	1038.65125	301.61404	589.34332	1112.01111	278.80743	583.46417	1567.05420	116.45701	584.79321	1531.45544	281.76712	577.48950	1257.40649	239.83878	734.19489	1605.14685	223.54051	417.25342	1595.51514	228.63223	410.21320	706.99628	258.16669	428.88034	651.26373	211.17358	408.12381	643.79401	221.61829	415.30847	524.75555	174.75958	517.19666	506.35779	222.42307	400.14948	276.37115	269.59918	381.07706	274.90207	242.92979	391.92450	214.24196	268.11313	468.11841	92.37595	287.10074	380.59747	83.67816	343.92136	422.38705	38.98696	115.27502	434.42621	41.43761	145.16122	352.03738	26.12989	122.68764	388.94531	36.08179	207.75967	793.16864	674.78101	254.94868	773.82166	671.01898	226.34045	781.79291	613.11627	203.24620	778.30945	529.35724	179.52194	681.98676	508.71335	259.94888	811.46283	277.72546	291.54535	813.93414	219.52396	240.75845	809.88525	214.43321	292.79813	813.64069	75.46321	245.15704	736.35284	71.10683	339.78848	765.16766	30.46193	173.10776	862.65265	26.14245	109.44405	788.41992	42.53600	134.10147	828.95514	40.16494	160.89093	114.52288	1469.93213	233.76111	116.06657	1509.22620	259.71262	217.27708	1523.62903	226.96599	219.21924	1561.37061	235.94478	281.26239	1565.42932	170.62526	-167.38235	1563.28394	141.27272	-136.37283	1628.15295	167.47195	-235.90773	1657.31140	216.25034	1341.76709	1591.07544	195.31926	1308.38977	1658.06824	226.20888	1394.88867	1680.75574	178.36194	1045.19690	1484.24963	247.76447	1057.61536	1539.34656	246.57771	910.31708	1577.27405	254.47308	970.59711	1564.47791	281.36230	898.85095	1542.21436	83.05440	596.36145	1780.18567	125.12980	536.93347	1729.89526				74.38473	553.24286	1742.20581	1239.42224	-61.74677	57.08131	151.32246	622.78052	1741.00000				117.64096	525.82397	1750.86890	40.66158	649.65717	1771.70862	1235.46436	-221.15594	42.24929							277.60693	424.35794	88.02706	268.97758	774.99677	73.28502	198.18893	466.25256	515.55667	191.38407	730.14810	519.03529	200.65250	508.10425	1066.94965	205.51374	672.63498	1073.20874 
83	0.410	102.50650	580.67310	1817.70386	134.89737	522.28357	1803.19971	131.07228	651.48694	1801.40356	1237.75549	1766.98340	37.49718	1248.00562	-457.99249	32.45272	101.11333	723.85999	1048.27307	310.00064	621.37830	1098.17664	305.84961	557.50690	1095.26074	95.49482	458.71652	1038.65796	301.65674	589.34680	1112.01416	278.83035	583.46594	1567.07043	116.47750	584.80261	1531.45630	281.79767	577.48370	1257.41785	239.81877	734.20905	1605.15332	223.55136	417.26938	1595.53174	228.67003	410.20700	707.00439	258.19131	428.87830	651.26788	211.20801	408.12350	643.80157	221.64429	415.29971	524.76270	174.78778	517.19342	506.35001	222.42899	400.17020	276.37137	269.60336	381.06790	274.89771	242.92110	391.91553	214.25439	268.09497	468.13062	92.38479	287.10345	380.59760	83.67536	343.94193	422.35599	38.99440	115.27608	434.42862	41.43814	145.16306	352.03922	26.13095	122.68452	388.95038	36.08179	207.93033	793.16290	674.73621	254.99332	773.79926	671.01825	226.43678	781.72156	613.11823	203.23543	778.33081	529.37695	179.51547	682.00122	508.71213	259.96103	811.46381	277.73276	291.95010	814.56433	219.93170	240.76099	809.88342	214.43488	292.80988	813.63312	75.46318	245.15794	736.35107	71.10522	339.88696	765.07495	30.50672	173.11130	862.64825	26.14154	109.43915	788.40546	42.54631	134.09535	828.97382	40.15421	160.90359	114.53398	1469.94141	233.76064	116.09521	1509.21558	259.73471	217.28615	1523.62512	226.98415	219.22975	1561.36926	235.97142	281.29028	1565.43469	170.62758	-167.35597	1563.30298	141.29410	-136.36090	1628.18042	167.49890	-235.87001	1657.35205	216.24644	1341.77869	1591.05530	195.31020	1308.40955	1658.05261	226.21475	1394.91479	1680.73364	178.37723	1045.19080	1484.24438	247.77135	1057.64380	1539.32959	246.58197	910.32220	1577.27795	254.47763	970.60333	1564.47278	281.35587	898.85486	1542.22974	83.03310	596.83527	1780.21326	125.11291	536.96161	1729.91431	-201.23285	-470.07227	23.73791	74.37949	553.26691	1742.23022				151.32327	622.77863	1741.02295							40.63659	649.68970	1771.72681	1235.02429	-220.91290	42.36930							277.59921	424.36411	88.03008	268.98391	774.99210	73.28420	198.21603	466.24657	515.55635	191.37545	730.16602	519.04454	200.67221	508.11171	1066.95935	205.55699	672.61914	1073.22485 
84	0.415	102.46996	580.69824	1817.69604	134.86353	522.30426	1803.19885	131.04637	651.52454	1801.39587	1237.75684	1766.97974	37.49883	1248.00537	-457.98999	32.44620	101.47363	724.49921	1048.47485	310.04889	621.37604	1098.17639	305.88260	557.49695	1095.26001	95.52180	458.72031	1038.66125	301.68811	589.34772	1112.02002	278.83145	583.48749	1567.08740	116.49809	584.81390	1531.45911	281.82867	577.49811	1257.41833	239.81429	734.22668	1605.16516	223.57382	417.27737	1595.53601	228.69734	410.21140	706.99854	258.22269	428.87732	651.27356	211.23511	408.11865	643.80188	221.65839	415.29602	524.75519	174.78722	517.18933	506.35568	222.44409	400.15186	276.35904	269.60400	381.06396	274.89752	243.07906	391.94870	214.24759	268.12427	468.10611	92.40521	287.10721	380.59079	83.67097	343.94250	422.36426	38.98864	115.28327	434.42603	41.43641	145.16583	352.03488	26.12810	122.69022	388.94522	36.08419	208.18729	792.94678	674.95544	254.97647	773.79102	671.02649	226.35764	781.79095	613.12061	203.27032	778.33038	529.37122	179.50378	682.00574	508.71802	259.97839	811.46393	277.73941	291.56729	814.02112	219.58116	240.76016	809.89258	214.45029	292.80908	813.63177	75.45746	245.15672	736.35120	71.11340	339.89426	765.05835	30.50145	173.10237	862.65515	26.15109	109.42800	788.41528	42.55042	134.10519	828.96704	40.16216	160.92381	114.53794	1469.95288	233.77823	116.09719	1509.23926	259.73624	217.31017	1523.62439	226.99876	219.25301	1561.37085	235.84958	281.02417	1565.32922	170.66328	-167.35370	1563.32019	141.31238	-136.34747	1628.20215	167.55685	-235.85841	1657.36230	216.24976	1341.78918	1591.03784	195.31908	1308.42822	1658.03027	226.20451	1394.94299	1680.71912	178.40680	1045.20605	1484.21851	247.76114	1057.66968	1539.32117	246.57173	910.32880	1577.27979	254.46219	970.62427	1564.46326	281.34924	898.85907	1542.23047	82.89944	597.01416	1780.10022	125.12297	536.94751	1729.89587	-201.32239	-470.12201	23.75279	74.34639	553.27930	1742.22986	118.34848	629.50018	1749.20496	151.27065	622.83777	1741.04150							40.58565	649.69879	1771.62170										277.61574	424.34845	88.03809	268.98290	774.99149	73.28543	198.22280	466.24268	515.55544	191.38705	730.16806	519.04462	200.70220	508.10863	1066.96063	205.76126	672.93762	1073.32562 
